# xmcd
#
# Track frame offsets:
#	150
#	4100
#	19369
#	32020
#	51705
#	73764
#	86233
#	103805
#	113530
#	126672
#	148746
#	167398
#	182522
#
# Disc length: 2715 seconds
# Revision: 0
# Processed by: cddbd v1.5.2PL0 Copyright (c) Steve Scherf et al.
# Submitted via: dBpowerAMP V12.0
#
DISCID=ba0a990d
DTITLE=Susie Glaze - Home on the Hill
DYEAR=2002
DGENRE=Country
TTITLE0=Intro: Come All You Fair and Tender Ladies
TTITLE1=One More Mile
TTITLE2=Paper Wings
TTITLE3=The Lightning Express
TTITLE4=My Only Love
TTITLE5=Prove My Love
TTITLE6=Home on the Hill
TTITLE7=Wichita
TTITLE8=Making Plans
TTITLE9=Who Will Watch the Home Place
TTITLE10=Go Dig My Grave
TTITLE11=Healing Waters
TTITLE12=Brightest and Best
EXTD=
EXTT0=
EXTT1=
EXTT2=
EXTT3=
EXTT4=
EXTT5=
EXTT6=
EXTT7=
EXTT8=
EXTT9=
EXTT10=
EXTT11=
EXTT12=
PLAYORDER=
